<?xml version="1.0" encoding="UTF-8"?>
<svg xmlns="http://www.w3.org/2000/svg" xmlns:xlink="http://www.w3.org/1999/xlink" width="60px" height="32px" viewBox="0 0 59 32" version="1.1">
<g id="surface1">
<path style=" stroke:none;fill-rule:nonzero;fill:rgb(99.607843%,99.607843%,99.607843%);fill-opacity:1;" d="M 0 0 L 59 0 L 59 32 L 0 32 Z M 44.066406 2.9375 L 42.476562 2.476562 L 40.722656 2.042969 C 40.691406 2.03125 40.65625 2.019531 40.625 2.015625 C 40.179688 1.929688 39.734375 1.84375 39.289062 1.757812 C 39.050781 1.710938 38.816406 1.664062 38.582031 1.617188 L 36.828125 1.339844 C 36.820312 1.332031 36.808594 1.328125 36.796875 1.324219 C 36.148438 1.25 35.496094 1.175781 34.847656 1.105469 C 34.699219 1.085938 34.554688 1.066406 34.40625 1.054688 C 33.976562 1.019531 33.546875 0.988281 33.117188 0.957031 C 32.921875 0.945312 32.722656 0.929688 32.523438 0.921875 C 32.121094 0.902344 31.722656 0.886719 31.320312 0.867188 L 29.292969 0.839844 C 28.863281 0.84375 28.433594 0.847656 28.003906 0.859375 C 27.847656 0.859375 27.691406 0.871094 27.535156 0.878906 C 26.914062 0.910156 26.292969 0.9375 25.675781 0.972656 C 25.339844 0.992188 25.007812 1.015625 24.675781 1.046875 C 24.199219 1.09375 23.71875 1.148438 23.242188 1.203125 C 22.738281 1.261719 22.238281 1.316406 21.738281 1.398438 C 20.960938 1.523438 20.183594 1.660156 19.410156 1.804688 C 17.8125 2.113281 16.234375 2.515625 14.683594 3.011719 C 12.867188 3.59375 11.105469 4.296875 9.410156 5.179688 C 8.652344 5.574219 7.914062 5.992188 7.203125 6.464844 C 6.835938 6.707031 6.484375 6.96875 6.128906 7.21875 C 5.980469 7.328125 5.828125 7.433594 5.6875 7.550781 C 5.429688 7.757812 5.179688 7.972656 4.929688 8.1875 C 4.894531 8.210938 4.859375 8.234375 4.832031 8.261719 C 4.667969 8.414062 4.5 8.558594 4.34375 8.71875 C 4.050781 9.015625 3.765625 9.324219 3.480469 9.625 C 3.464844 9.636719 3.449219 9.652344 3.4375 9.664062 C 2.894531 10.292969 2.402344 10.960938 1.996094 11.691406 C 1.886719 11.90625 1.769531 12.117188 1.667969 12.335938 C 1.269531 13.1875 0.996094 14.074219 0.890625 15.015625 C 0.871094 15.269531 0.828125 15.527344 0.835938 15.78125 C 0.851562 16.265625 0.871094 16.75 0.929688 17.230469 C 0.992188 17.734375 1.113281 18.222656 1.292969 18.695312 C 1.464844 19.222656 1.695312 19.722656 1.960938 20.210938 C 2.4375 21.089844 3.03125 21.878906 3.707031 22.605469 C 4.066406 22.996094 4.449219 23.367188 4.851562 23.710938 C 5.421875 24.195312 6.007812 24.667969 6.613281 25.101562 C 8.140625 26.1875 9.789062 27.042969 11.507812 27.773438 C 11.847656 27.917969 12.191406 28.046875 12.53125 28.183594 C 12.554688 28.199219 12.578125 28.210938 12.601562 28.222656 C 13.308594 28.46875 14.007812 28.730469 14.714844 28.964844 C 15.726562 29.296875 16.757812 29.574219 17.796875 29.8125 C 18.132812 29.890625 18.46875 29.960938 18.804688 30.03125 C 19.011719 30.078125 19.214844 30.132812 19.421875 30.171875 C 20.011719 30.277344 20.601562 30.386719 21.195312 30.484375 C 21.542969 30.542969 21.890625 30.585938 22.242188 30.632812 C 22.574219 30.679688 22.910156 30.730469 23.246094 30.773438 C 23.582031 30.8125 23.917969 30.847656 24.253906 30.878906 C 24.582031 30.90625 24.910156 30.933594 25.238281 30.957031 C 25.398438 30.972656 25.5625 30.992188 25.722656 31.003906 C 26.042969 31.027344 26.363281 31.042969 26.683594 31.058594 C 27.105469 31.074219 27.53125 31.089844 27.953125 31.105469 C 28.191406 31.109375 28.425781 31.121094 28.664062 31.121094 C 29.234375 31.125 29.804688 31.121094 30.375 31.117188 C 30.414062 31.117188 30.453125 31.125 30.492188 31.121094 C 31.269531 31.09375 32.046875 31.078125 32.824219 31.027344 C 33.820312 30.957031 34.816406 30.871094 35.808594 30.765625 C 37.027344 30.632812 38.238281 30.433594 39.445312 30.199219 C 41.179688 29.863281 42.890625 29.421875 44.574219 28.875 C 46.636719 28.203125 48.632812 27.367188 50.527344 26.289062 C 52.160156 25.359375 53.679688 24.277344 55 22.929688 C 55.957031 21.953125 56.773438 20.871094 57.351562 19.625 C 58.328125 17.515625 58.464844 15.355469 57.6875 13.15625 C 57.167969 11.691406 56.308594 10.4375 55.257812 9.308594 C 54.203125 8.175781 53 7.222656 51.699219 6.386719 C 50.109375 5.363281 48.414062 4.53125 46.652344 3.839844 C 46.277344 3.691406 45.898438 3.558594 45.519531 3.421875 C 45.433594 3.386719 45.351562 3.351562 45.261719 3.324219 C 44.863281 3.191406 44.464844 3.066406 44.066406 2.9375 Z M 44.066406 2.9375 "/>
<path style=" stroke:none;fill-rule:nonzero;fill:rgb(46.666667%,48.235294%,69.803922%);fill-opacity:1;" d="M 1.292969 18.695312 C 1.113281 18.222656 0.992188 17.734375 0.929688 17.230469 C 0.871094 16.753906 0.851562 16.265625 0.835938 15.78125 C 0.828125 15.527344 0.871094 15.269531 0.890625 15.011719 C 0.925781 15.046875 0.96875 15.074219 0.992188 15.113281 C 1.09375 15.296875 1.1875 15.488281 1.292969 15.667969 C 1.484375 15.992188 1.679688 16.3125 1.878906 16.636719 C 1.894531 16.664062 1.929688 16.683594 1.957031 16.710938 C 1.957031 16.578125 1.957031 16.476562 1.957031 16.375 C 1.964844 16.03125 1.964844 15.691406 1.984375 15.347656 C 1.996094 15.128906 2.023438 14.90625 2.066406 14.691406 C 2.175781 14.085938 2.359375 13.496094 2.605469 12.933594 C 2.757812 12.628906 2.890625 12.3125 3.070312 12.023438 C 3.335938 11.59375 3.632812 11.179688 3.917969 10.757812 C 4.226562 10.414062 4.535156 10.066406 4.847656 9.722656 C 4.984375 9.570312 5.132812 9.425781 5.28125 9.277344 C 5.453125 9.128906 5.628906 8.980469 5.800781 8.832031 C 5.988281 8.671875 6.175781 8.515625 6.363281 8.355469 C 6.382812 8.347656 6.402344 8.335938 6.421875 8.324219 C 6.703125 8.117188 6.980469 7.902344 7.265625 7.703125 C 8.152344 7.082031 9.089844 6.539062 10.054688 6.050781 C 11.085938 5.527344 12.140625 5.058594 13.230469 4.675781 C 14.070312 4.375 14.914062 4.078125 15.769531 3.828125 C 16.664062 3.566406 17.570312 3.34375 18.480469 3.132812 C 19.175781 2.972656 19.878906 2.832031 20.582031 2.714844 C 21.324219 2.585938 22.074219 2.484375 22.824219 2.382812 C 23.414062 2.304688 24.007812 2.238281 24.597656 2.179688 C 25.085938 2.128906 25.574219 2.09375 26.0625 2.0625 C 26.511719 2.035156 26.964844 2.011719 27.414062 1.992188 C 27.882812 1.976562 28.351562 1.972656 28.816406 1.96875 C 29.097656 1.964844 29.378906 1.964844 29.660156 1.964844 L 31.691406 1.988281 C 31.707031 2 31.722656 2.007812 31.742188 2.011719 C 32.078125 2.027344 32.417969 2.039062 32.757812 2.058594 C 32.976562 2.070312 33.195312 2.089844 33.417969 2.101562 C 33.761719 2.125 34.109375 2.148438 34.453125 2.175781 C 34.640625 2.191406 34.824219 2.21875 35.007812 2.242188 C 35.222656 2.265625 35.4375 2.289062 35.652344 2.3125 C 36.078125 2.359375 36.507812 2.410156 36.933594 2.460938 C 37.027344 2.46875 37.070312 2.417969 37.050781 2.320312 C 36.976562 1.992188 36.902344 1.667969 36.828125 1.339844 L 38.578125 1.613281 C 38.582031 1.671875 38.585938 1.730469 38.59375 1.785156 C 38.640625 2.042969 38.695312 2.300781 38.738281 2.5625 C 38.765625 2.726562 38.800781 2.765625 38.960938 2.800781 C 39.425781 2.894531 39.890625 2.992188 40.355469 3.089844 C 40.53125 3.125 40.707031 3.160156 40.882812 3.191406 C 41.074219 3.242188 41.265625 3.292969 41.460938 3.34375 C 41.835938 3.4375 42.210938 3.535156 42.589844 3.632812 C 42.964844 3.742188 43.339844 3.855469 43.71875 3.964844 C 43.871094 4.011719 44.027344 4.054688 44.179688 4.097656 C 44.390625 4.171875 44.601562 4.246094 44.816406 4.320312 C 45.070312 4.40625 45.328125 4.492188 45.585938 4.582031 C 45.761719 4.652344 45.9375 4.714844 46.109375 4.789062 C 46.789062 5.074219 47.472656 5.359375 48.148438 5.660156 C 48.941406 6.019531 49.714844 6.425781 50.460938 6.875 C 51.191406 7.308594 51.90625 7.773438 52.570312 8.308594 C 53.019531 8.671875 53.472656 9.039062 53.882812 9.445312 C 54.296875 9.847656 54.691406 10.292969 55.066406 10.734375 C 55.523438 11.277344 55.898438 11.878906 56.214844 12.511719 C 56.460938 12.992188 56.652344 13.496094 56.796875 14.015625 C 56.960938 14.609375 57.050781 15.21875 57.0625 15.832031 C 57.070312 16.046875 57.0625 16.261719 57.039062 16.476562 C 56.992188 16.878906 56.945312 17.285156 56.859375 17.679688 C 56.699219 18.417969 56.410156 19.109375 56.046875 19.769531 C 55.617188 20.550781 55.089844 21.273438 54.476562 21.921875 C 54.121094 22.304688 53.746094 22.667969 53.347656 23.007812 C 52.820312 23.453125 52.28125 23.886719 51.714844 24.277344 C 51.101562 24.699219 50.464844 25.089844 49.816406 25.449219 C 49.117188 25.835938 48.394531 26.195312 47.667969 26.527344 C 46.992188 26.832031 46.304688 27.105469 45.609375 27.355469 C 44.8125 27.644531 44.011719 27.917969 43.199219 28.152344 C 42.238281 28.425781 41.269531 28.660156 40.296875 28.886719 C 39.691406 29.03125 39.078125 29.132812 38.464844 29.246094 C 38.023438 29.324219 37.578125 29.390625 37.132812 29.457031 C 36.757812 29.515625 36.382812 29.570312 36.007812 29.613281 C 35.632812 29.660156 35.257812 29.699219 34.882812 29.734375 C 34.398438 29.78125 33.917969 29.828125 33.433594 29.867188 C 33.074219 29.898438 32.714844 29.917969 32.359375 29.941406 C 32.003906 29.957031 31.648438 29.972656 31.292969 29.984375 C 30.910156 29.996094 30.527344 30 30.144531 30.011719 L 27.726562 29.988281 C 27.664062 29.980469 27.605469 29.96875 27.542969 29.964844 C 27.234375 29.953125 26.925781 29.953125 26.617188 29.9375 C 26.148438 29.910156 25.679688 29.875 25.214844 29.847656 C 25.203125 29.839844 25.195312 29.828125 25.183594 29.828125 C 24.898438 29.804688 24.609375 29.78125 24.324219 29.753906 C 24.066406 29.730469 23.808594 29.707031 23.550781 29.679688 C 23.269531 29.652344 22.984375 29.621094 22.703125 29.589844 L 22.65625 29.570312 L 22.402344 29.546875 C 22.242188 29.523438 22.078125 29.5 21.921875 29.472656 C 21.511719 29.40625 21.101562 29.34375 20.691406 29.269531 C 20.125 29.167969 19.558594 29.058594 18.996094 28.949219 C 18.753906 28.902344 18.515625 28.855469 18.277344 28.804688 C 18.089844 28.757812 17.902344 28.714844 17.714844 28.660156 C 16.671875 28.367188 15.625 28.078125 14.582031 27.769531 C 14.09375 27.625 13.617188 27.429688 13.132812 27.257812 C 12.199219 26.921875 11.285156 26.53125 10.398438 26.085938 C 9.753906 25.761719 9.121094 25.414062 8.5 25.050781 C 8.003906 24.761719 7.523438 24.445312 7.054688 24.117188 C 6.679688 23.859375 6.328125 23.566406 5.96875 23.289062 C 5.792969 23.148438 5.609375 23.015625 5.441406 22.871094 C 5.183594 22.652344 4.933594 22.425781 4.679688 22.203125 C 4.367188 21.929688 4.039062 21.667969 3.746094 21.371094 C 3.25 20.875 2.765625 20.367188 2.292969 19.84375 C 2.003906 19.527344 1.742188 19.179688 1.46875 18.84375 C 1.417969 18.789062 1.351562 18.746094 1.292969 18.695312 Z M 23.804688 17.546875 C 23.804688 17.5625 23.804688 17.578125 23.804688 17.59375 C 23.632812 18.480469 23.460938 19.371094 23.289062 20.257812 C 23.199219 20.703125 23.476562 21.054688 23.925781 21.054688 C 24.996094 21.054688 26.070312 21.054688 27.140625 21.054688 C 27.457031 21.054688 27.710938 20.851562 27.769531 20.550781 C 27.957031 19.597656 28.140625 18.644531 28.320312 17.695312 C 28.660156 15.945312 28.996094 14.195312 29.335938 12.445312 C 29.347656 12.371094 29.378906 12.355469 29.445312 12.355469 C 30.175781 12.355469 30.90625 12.347656 31.636719 12.363281 C 31.910156 12.371094 32.183594 12.433594 32.453125 12.480469 C 32.628906 12.511719 32.703125 12.640625 32.703125 12.808594 C 32.699219 13.015625 32.699219 13.226562 32.664062 13.429688 C 32.582031 13.929688 32.480469 14.425781 32.382812 14.925781 C 32.0625 16.582031 31.742188 18.242188 31.421875 19.898438 C 31.386719 20.082031 31.335938 20.265625 31.335938 20.445312 C 31.335938 20.796875 31.617188 21.054688 31.972656 21.054688 C 33.019531 21.054688 34.070312 21.054688 35.117188 21.054688 C 35.277344 21.054688 35.441406 21.019531 35.605469 21.003906 C 35.605469 21.023438 35.605469 21.042969 35.601562 21.0625 C 35.394531 22.132812 35.1875 23.199219 34.980469 24.269531 C 34.886719 24.75 35.136719 25.089844 35.621094 25.09375 C 36.691406 25.101562 37.761719 25.097656 38.835938 25.09375 C 39.191406 25.089844 39.417969 24.898438 39.484375 24.542969 C 39.707031 23.414062 39.925781 22.285156 40.140625 21.15625 C 40.15625 21.070312 40.1875 21.050781 40.265625 21.050781 C 40.980469 21.054688 41.695312 21.050781 42.410156 21.054688 C 43.160156 21.054688 43.90625 21.011719 44.644531 20.890625 C 45.445312 20.761719 46.210938 20.527344 46.90625 20.105469 C 48.554688 19.109375 49.691406 17.695312 50.238281 15.832031 C 50.546875 14.777344 50.675781 13.695312 50.496094 12.601562 C 50.253906 11.105469 49.449219 10.007812 48.105469 9.324219 C 47.171875 8.847656 46.160156 8.671875 45.128906 8.664062 C 42.929688 8.648438 40.726562 8.65625 38.527344 8.65625 C 38.207031 8.65625 37.964844 8.859375 37.898438 9.179688 C 37.769531 9.832031 37.644531 10.488281 37.519531 11.140625 C 37.472656 11.375 37.429688 11.613281 37.378906 11.847656 C 37.320312 11.269531 37.164062 10.726562 36.832031 10.242188 C 36.429688 9.660156 35.859375 9.304688 35.203125 9.070312 C 34.335938 8.761719 33.433594 8.679688 32.519531 8.660156 C 31.753906 8.648438 30.984375 8.65625 30.214844 8.65625 L 30.074219 8.65625 C 30.085938 8.578125 30.097656 8.511719 30.109375 8.449219 C 30.304688 7.4375 30.492188 6.421875 30.703125 5.414062 C 30.777344 5.054688 30.539062 4.613281 30.039062 4.621094 C 28.984375 4.632812 27.929688 4.625 26.871094 4.625 C 26.5 4.625 26.273438 4.820312 26.203125 5.191406 C 26.050781 6.003906 25.890625 6.816406 25.734375 7.628906 C 25.492188 8.878906 25.25 10.128906 25.007812 11.378906 C 24.96875 11.5625 24.933594 11.75 24.898438 11.933594 C 24.863281 12.113281 24.828125 12.296875 24.789062 12.496094 C 24.777344 12.464844 24.773438 12.453125 24.769531 12.445312 C 24.761719 12.425781 24.757812 12.40625 24.753906 12.386719 C 24.425781 10.859375 23.527344 9.804688 22.109375 9.1875 C 21.257812 8.816406 20.351562 8.671875 19.429688 8.664062 C 17.226562 8.648438 15.027344 8.65625 12.824219 8.65625 C 12.5 8.65625 12.257812 8.859375 12.195312 9.1875 C 11.972656 10.316406 11.757812 11.445312 11.539062 12.574219 C 11.289062 13.867188 11.039062 15.160156 10.785156 16.453125 C 10.503906 17.90625 10.222656 19.359375 9.941406 20.8125 C 9.710938 21.996094 9.484375 23.179688 9.257812 24.359375 C 9.226562 24.53125 9.265625 24.703125 9.371094 24.839844 C 9.472656 24.980469 9.628906 25.066406 9.796875 25.082031 C 9.976562 25.097656 10.160156 25.09375 10.339844 25.09375 C 11.253906 25.097656 12.167969 25.097656 13.082031 25.09375 C 13.460938 25.09375 13.714844 24.902344 13.777344 24.570312 C 13.941406 23.722656 14.105469 22.878906 14.269531 22.03125 C 14.332031 21.707031 14.394531 21.382812 14.460938 21.054688 C 14.519531 21.054688 14.566406 21.054688 14.617188 21.054688 C 15.824219 21.039062 17.03125 21.105469 18.234375 20.984375 C 18.847656 20.925781 19.457031 20.820312 20.046875 20.625 C 21.378906 20.183594 22.429688 19.347656 23.296875 18.257812 C 23.476562 18.03125 23.632812 17.789062 23.804688 17.546875 Z M 23.804688 17.546875 "/>
<path style=" stroke:none;fill-rule:nonzero;fill:rgb(28.235294%,29.803922%,53.72549%);fill-opacity:1;" d="M 32.359375 29.941406 C 32.714844 29.917969 33.074219 29.898438 33.433594 29.871094 C 33.917969 29.828125 34.398438 29.78125 34.882812 29.734375 C 35.257812 29.699219 35.632812 29.660156 36.007812 29.613281 C 36.382812 29.570312 36.757812 29.515625 37.132812 29.457031 C 37.578125 29.390625 38.023438 29.324219 38.464844 29.246094 C 39.078125 29.132812 39.691406 29.03125 40.296875 28.886719 C 41.269531 28.660156 42.238281 28.425781 43.199219 28.152344 C 44.011719 27.917969 44.8125 27.644531 45.609375 27.355469 C 46.304688 27.105469 46.992188 26.832031 47.667969 26.527344 C 48.394531 26.195312 49.117188 25.835938 49.816406 25.449219 C 50.464844 25.089844 51.101562 24.699219 51.714844 24.277344 C 52.28125 23.886719 52.820312 23.453125 53.347656 23.007812 C 53.746094 22.667969 54.121094 22.304688 54.476562 21.921875 C 55.089844 21.273438 55.617188 20.550781 56.046875 19.769531 C 56.410156 19.109375 56.699219 18.417969 56.859375 17.679688 C 56.949219 17.285156 56.992188 16.878906 57.039062 16.476562 C 57.0625 16.261719 57.070312 16.046875 57.0625 15.832031 C 57.050781 15.21875 56.960938 14.609375 56.796875 14.015625 C 56.652344 13.496094 56.460938 12.992188 56.214844 12.511719 C 55.898438 11.878906 55.523438 11.277344 55.066406 10.734375 C 54.691406 10.292969 54.304688 9.851562 53.886719 9.445312 C 53.46875 9.039062 53.023438 8.675781 52.574219 8.308594 C 51.910156 7.773438 51.195312 7.308594 50.464844 6.875 C 49.71875 6.425781 48.945312 6.019531 48.152344 5.660156 C 47.476562 5.359375 46.792969 5.078125 46.109375 4.789062 C 45.9375 4.714844 45.761719 4.648438 45.585938 4.582031 C 45.558594 4.238281 45.523438 3.894531 45.496094 3.554688 C 45.492188 3.511719 45.511719 3.464844 45.519531 3.417969 C 45.898438 3.558594 46.28125 3.691406 46.65625 3.839844 C 48.414062 4.53125 50.109375 5.359375 51.703125 6.386719 C 53 7.222656 54.203125 8.175781 55.257812 9.308594 C 56.308594 10.4375 57.167969 11.691406 57.6875 13.15625 C 58.46875 15.355469 58.332031 17.515625 57.351562 19.625 C 56.773438 20.871094 55.957031 21.949219 55 22.925781 C 53.679688 24.273438 52.160156 25.359375 50.527344 26.289062 C 48.632812 27.363281 46.640625 28.199219 44.574219 28.875 C 42.894531 29.421875 41.179688 29.863281 39.445312 30.199219 C 38.238281 30.433594 37.027344 30.628906 35.808594 30.761719 C 34.816406 30.871094 33.820312 30.957031 32.824219 31.027344 C 32.050781 31.078125 31.269531 31.089844 30.492188 31.121094 C 30.453125 31.121094 30.414062 31.121094 30.375 31.117188 C 30.402344 31.089844 30.425781 31.050781 30.457031 31.035156 C 30.726562 30.890625 31 30.761719 31.265625 30.613281 C 31.609375 30.425781 31.953125 30.226562 32.292969 30.027344 C 32.320312 30.011719 32.335938 29.972656 32.359375 29.941406 Z M 32.359375 29.941406 "/>
<path style=" stroke:none;fill-rule:nonzero;fill:rgb(67.843137%,69.411765%,83.137255%);fill-opacity:1;" d="M 29.660156 1.960938 C 29.378906 1.960938 29.097656 1.960938 28.820312 1.964844 C 28.351562 1.972656 27.882812 1.976562 27.414062 1.992188 C 26.964844 2.007812 26.511719 2.03125 26.0625 2.0625 C 25.574219 2.09375 25.085938 2.128906 24.601562 2.179688 C 24.007812 2.238281 23.414062 2.304688 22.824219 2.382812 C 22.078125 2.484375 21.328125 2.585938 20.582031 2.710938 C 19.878906 2.832031 19.175781 2.96875 18.480469 3.132812 C 17.574219 3.34375 16.664062 3.566406 15.769531 3.828125 C 14.914062 4.078125 14.070312 4.375 13.230469 4.675781 C 12.140625 5.058594 11.085938 5.527344 10.054688 6.050781 C 9.089844 6.539062 8.152344 7.082031 7.265625 7.703125 C 6.980469 7.90625 6.703125 8.117188 6.421875 8.324219 C 6.402344 8.335938 6.382812 8.347656 6.363281 8.355469 C 6.347656 8.316406 6.320312 8.273438 6.316406 8.230469 C 6.273438 7.949219 6.238281 7.671875 6.195312 7.390625 C 6.1875 7.332031 6.152344 7.273438 6.128906 7.21875 C 6.484375 6.964844 6.839844 6.707031 7.203125 6.464844 C 7.914062 5.992188 8.652344 5.574219 9.410156 5.179688 C 11.105469 4.296875 12.871094 3.59375 14.683594 3.011719 C 16.234375 2.515625 17.8125 2.109375 19.410156 1.804688 C 20.183594 1.65625 20.960938 1.519531 21.738281 1.394531 C 22.238281 1.316406 22.738281 1.261719 23.242188 1.203125 C 23.71875 1.144531 24.199219 1.09375 24.679688 1.046875 C 25.007812 1.015625 25.34375 0.992188 25.675781 0.972656 C 26.292969 0.9375 26.914062 0.90625 27.535156 0.875 C 27.691406 0.867188 27.847656 0.859375 28.003906 0.855469 C 28.433594 0.847656 28.863281 0.84375 29.292969 0.835938 C 29.296875 0.898438 29.289062 0.964844 29.308594 1.019531 C 29.367188 1.179688 29.441406 1.328125 29.5 1.488281 C 29.558594 1.644531 29.605469 1.804688 29.660156 1.960938 Z M 29.660156 1.960938 "/>
<path style=" stroke:none;fill-rule:nonzero;fill:rgb(43.137255%,44.705882%,64.705882%);fill-opacity:1;" d="M 1.292969 18.695312 C 1.351562 18.746094 1.417969 18.789062 1.464844 18.847656 C 1.742188 19.179688 2.003906 19.527344 2.292969 19.847656 C 2.765625 20.367188 3.25 20.875 3.746094 21.371094 C 4.039062 21.667969 4.367188 21.929688 4.679688 22.203125 C 4.933594 22.425781 5.183594 22.652344 5.441406 22.871094 C 5.613281 23.015625 5.792969 23.152344 5.96875 23.289062 C 6.328125 23.566406 6.679688 23.859375 7.054688 24.117188 C 7.523438 24.445312 8.003906 24.761719 8.5 25.050781 C 9.121094 25.414062 9.753906 25.761719 10.398438 26.085938 C 11.285156 26.53125 12.199219 26.921875 13.132812 27.257812 C 13.613281 27.433594 14.09375 27.625 14.582031 27.769531 C 15.625 28.082031 16.667969 28.367188 17.714844 28.660156 C 17.902344 28.714844 18.089844 28.757812 18.277344 28.804688 C 18.242188 28.816406 18.207031 28.824219 18.167969 28.828125 C 17.796875 28.824219 17.425781 28.816406 17.054688 28.804688 C 17.046875 28.804688 17.039062 28.804688 17.03125 28.804688 C 16.585938 28.769531 16.136719 28.734375 15.691406 28.691406 C 15.351562 28.65625 15.015625 28.628906 14.679688 28.570312 C 14.039062 28.453125 13.40625 28.3125 12.765625 28.1875 C 12.691406 28.171875 12.609375 28.183594 12.53125 28.183594 C 12.191406 28.050781 11.847656 27.917969 11.507812 27.777344 C 9.789062 27.042969 8.140625 26.1875 6.617188 25.101562 C 6.007812 24.667969 5.421875 24.195312 4.851562 23.710938 C 4.449219 23.367188 4.066406 23 3.707031 22.609375 C 3.03125 21.882812 2.4375 21.089844 1.960938 20.210938 C 1.695312 19.726562 1.464844 19.222656 1.292969 18.695312 Z M 1.292969 18.695312 "/>
<path style=" stroke:none;fill-rule:nonzero;fill:rgb(40%,41.568627%,62.352941%);fill-opacity:1;" d="M 12.53125 28.183594 C 12.609375 28.183594 12.691406 28.171875 12.765625 28.1875 C 13.40625 28.3125 14.039062 28.453125 14.679688 28.566406 C 15.011719 28.628906 15.351562 28.65625 15.6875 28.691406 C 16.136719 28.734375 16.585938 28.769531 17.03125 28.804688 C 17.039062 28.804688 17.046875 28.804688 17.054688 28.804688 C 17.425781 28.8125 17.796875 28.820312 18.167969 28.828125 C 18.207031 28.824219 18.242188 28.816406 18.277344 28.804688 C 18.515625 28.855469 18.753906 28.902344 18.992188 28.949219 C 19.558594 29.058594 20.125 29.167969 20.691406 29.269531 C 21.097656 29.34375 21.511719 29.40625 21.917969 29.472656 C 22.082031 29.5 22.242188 29.523438 22.402344 29.546875 C 22.363281 29.570312 22.324219 29.605469 22.285156 29.613281 C 21.964844 29.664062 21.644531 29.714844 21.324219 29.757812 C 20.875 29.8125 20.425781 29.871094 19.976562 29.914062 C 19.652344 29.945312 19.324219 29.945312 18.996094 29.964844 C 18.929688 29.96875 18.871094 30.007812 18.804688 30.03125 C 18.46875 29.960938 18.132812 29.890625 17.796875 29.8125 C 16.757812 29.570312 15.726562 29.296875 14.714844 28.960938 C 14.007812 28.730469 13.308594 28.46875 12.601562 28.21875 C 12.578125 28.210938 12.554688 28.199219 12.53125 28.183594 Z M 12.53125 28.183594 "/>
<path style=" stroke:none;fill-rule:nonzero;fill:rgb(52.156863%,53.72549%,71.372549%);fill-opacity:1;" d="M 2.605469 12.933594 C 2.359375 13.496094 2.175781 14.085938 2.066406 14.691406 C 2.027344 14.910156 2 15.128906 1.984375 15.351562 C 1.964844 15.691406 1.964844 16.035156 1.960938 16.375 C 1.957031 16.476562 1.960938 16.582031 1.960938 16.710938 C 1.929688 16.683594 1.894531 16.664062 1.878906 16.636719 C 1.683594 16.316406 1.484375 15.996094 1.296875 15.671875 C 1.1875 15.488281 1.097656 15.296875 0.992188 15.113281 C 0.96875 15.074219 0.925781 15.046875 0.890625 15.011719 C 0.996094 14.074219 1.269531 13.1875 1.667969 12.335938 C 1.773438 12.117188 1.886719 11.90625 2 11.691406 C 2.027344 11.734375 2.054688 11.78125 2.078125 11.828125 C 2.210938 12.160156 2.34375 12.5 2.476562 12.835938 C 2.496094 12.890625 2.523438 12.949219 2.605469 12.933594 Z M 2.605469 12.933594 "/>
<path style=" stroke:none;fill-rule:nonzero;fill:rgb(37.647059%,39.215686%,60.784314%);fill-opacity:1;" d="M 18.804688 30.035156 C 18.871094 30.011719 18.929688 29.972656 18.996094 29.964844 C 19.324219 29.945312 19.652344 29.945312 19.976562 29.914062 C 20.425781 29.871094 20.875 29.816406 21.324219 29.757812 C 21.644531 29.714844 21.964844 29.664062 22.285156 29.613281 C 22.324219 29.605469 22.363281 29.570312 22.402344 29.546875 L 22.65625 29.570312 L 22.703125 29.589844 C 22.984375 29.621094 23.265625 29.652344 23.550781 29.679688 C 23.808594 29.707031 24.066406 29.730469 24.320312 29.753906 C 24.609375 29.78125 24.898438 29.804688 25.183594 29.828125 C 25.195312 29.828125 25.203125 29.839844 25.210938 29.847656 C 25.152344 29.875 25.09375 29.910156 25.03125 29.925781 C 24.480469 30.070312 23.929688 30.222656 23.371094 30.355469 C 23.03125 30.441406 22.679688 30.496094 22.332031 30.566406 C 22.300781 30.574219 22.269531 30.609375 22.238281 30.632812 C 21.890625 30.582031 21.542969 30.539062 21.195312 30.484375 C 20.601562 30.382812 20.011719 30.277344 19.421875 30.167969 C 19.214844 30.132812 19.011719 30.078125 18.804688 30.035156 Z M 18.804688 30.035156 "/>
<path style=" stroke:none;fill-rule:nonzero;fill:rgb(35.686275%,37.254902%,59.215686%);fill-opacity:1;" d="M 22.242188 30.636719 C 22.269531 30.613281 22.300781 30.574219 22.332031 30.570312 C 22.679688 30.496094 23.03125 30.441406 23.375 30.359375 C 23.929688 30.222656 24.480469 30.074219 25.03125 29.925781 C 25.09375 29.910156 25.152344 29.875 25.214844 29.847656 C 25.679688 29.878906 26.148438 29.914062 26.617188 29.9375 C 26.925781 29.953125 27.234375 29.957031 27.542969 29.964844 C 27.605469 29.96875 27.664062 29.980469 27.726562 29.988281 C 27.695312 30.015625 27.671875 30.054688 27.636719 30.066406 C 26.871094 30.335938 26.105469 30.601562 25.339844 30.871094 C 25.300781 30.886719 25.273438 30.929688 25.234375 30.960938 C 24.910156 30.933594 24.582031 30.910156 24.253906 30.878906 C 23.917969 30.847656 23.578125 30.816406 23.246094 30.773438 C 22.910156 30.734375 22.574219 30.679688 22.242188 30.636719 Z M 22.242188 30.636719 "/>
<path style=" stroke:none;fill-rule:nonzero;fill:rgb(32.941176%,34.509804%,57.254902%);fill-opacity:1;" d="M 25.234375 30.957031 C 25.269531 30.929688 25.300781 30.882812 25.339844 30.871094 C 26.105469 30.601562 26.871094 30.335938 27.636719 30.066406 C 27.671875 30.050781 27.695312 30.015625 27.726562 29.988281 L 30.144531 30.011719 C 30.113281 30.042969 30.082031 30.085938 30.042969 30.105469 C 29.398438 30.402344 28.75 30.695312 28.101562 30.992188 C 28.046875 31.019531 28.003906 31.066406 27.953125 31.105469 C 27.53125 31.089844 27.105469 31.074219 26.683594 31.058594 C 26.363281 31.042969 26.042969 31.027344 25.722656 31.003906 C 25.5625 30.992188 25.398438 30.972656 25.234375 30.957031 Z M 25.234375 30.957031 "/>
<path style=" stroke:none;fill-rule:nonzero;fill:rgb(57.254902%,58.823529%,75.294118%);fill-opacity:1;" d="M 2.605469 12.933594 C 2.523438 12.949219 2.5 12.890625 2.476562 12.832031 C 2.34375 12.496094 2.210938 12.164062 2.078125 11.828125 C 2.054688 11.777344 2.027344 11.734375 1.996094 11.691406 C 2.402344 10.960938 2.894531 10.292969 3.4375 9.664062 C 3.449219 9.648438 3.464844 9.636719 3.480469 9.625 C 3.503906 9.671875 3.535156 9.714844 3.550781 9.765625 C 3.636719 10.066406 3.71875 10.367188 3.800781 10.667969 C 3.816406 10.734375 3.847656 10.773438 3.917969 10.761719 C 3.636719 11.183594 3.335938 11.59375 3.070312 12.027344 C 2.890625 12.3125 2.757812 12.628906 2.605469 12.933594 Z M 2.605469 12.933594 "/>
<path style=" stroke:none;fill-rule:nonzero;fill:rgb(30.588235%,32.156863%,55.294118%);fill-opacity:1;" d="M 27.953125 31.105469 C 28.003906 31.066406 28.046875 31.015625 28.101562 30.992188 C 28.75 30.695312 29.398438 30.402344 30.042969 30.105469 C 30.082031 30.085938 30.113281 30.042969 30.144531 30.011719 C 30.527344 30.003906 30.910156 29.996094 31.292969 29.984375 C 31.648438 29.972656 32.003906 29.957031 32.359375 29.941406 C 32.335938 29.972656 32.320312 30.011719 32.292969 30.027344 C 31.953125 30.226562 31.609375 30.425781 31.265625 30.613281 C 31 30.761719 30.726562 30.890625 30.457031 31.035156 C 30.425781 31.050781 30.402344 31.089844 30.375 31.117188 C 29.804688 31.121094 29.234375 31.125 28.664062 31.121094 C 28.425781 31.121094 28.191406 31.109375 27.953125 31.105469 Z M 27.953125 31.105469 "/>
<path style=" stroke:none;fill-rule:nonzero;fill:rgb(42.352941%,43.921569%,64.313725%);fill-opacity:1;" d="M 40.886719 3.191406 C 40.710938 3.160156 40.535156 3.125 40.359375 3.089844 C 39.894531 2.992188 39.429688 2.894531 38.960938 2.800781 C 38.800781 2.765625 38.769531 2.726562 38.738281 2.5625 C 38.695312 2.300781 38.640625 2.046875 38.59375 1.785156 C 38.585938 1.730469 38.582031 1.671875 38.582031 1.613281 C 38.816406 1.660156 39.054688 1.707031 39.289062 1.753906 C 39.734375 1.839844 40.179688 1.925781 40.625 2.011719 C 40.660156 2.019531 40.691406 2.03125 40.726562 2.039062 C 40.738281 2.128906 40.746094 2.222656 40.757812 2.3125 C 40.800781 2.605469 40.84375 2.898438 40.886719 3.191406 Z M 40.886719 3.191406 "/>
<path style=" stroke:none;fill-rule:nonzero;fill:rgb(63.137255%,64.705882%,79.607843%);fill-opacity:1;" d="M 29.660156 1.960938 C 29.605469 1.804688 29.558594 1.644531 29.5 1.488281 C 29.441406 1.332031 29.367188 1.179688 29.308594 1.019531 C 29.289062 0.964844 29.296875 0.898438 29.292969 0.835938 L 31.320312 0.867188 C 31.328125 0.894531 31.332031 0.917969 31.339844 0.945312 C 31.457031 1.292969 31.574219 1.640625 31.691406 1.988281 Z M 29.660156 1.960938 "/>
<path style=" stroke:none;fill-rule:nonzero;fill:rgb(51.372549%,52.941176%,70.980392%);fill-opacity:1;" d="M 36.828125 1.339844 C 36.902344 1.667969 36.976562 1.996094 37.050781 2.324219 C 37.070312 2.417969 37.027344 2.472656 36.933594 2.460938 C 36.507812 2.410156 36.078125 2.363281 35.652344 2.3125 C 35.4375 2.289062 35.222656 2.265625 35.007812 2.242188 L 35.078125 2.199219 L 35.101562 2.199219 C 35.058594 2.011719 35.015625 1.828125 34.972656 1.640625 C 34.933594 1.460938 34.890625 1.28125 34.847656 1.101562 C 35.5 1.175781 36.148438 1.246094 36.800781 1.320312 C 36.808594 1.324219 36.820312 1.332031 36.828125 1.339844 Z M 36.828125 1.339844 "/>
<path style=" stroke:none;fill-rule:nonzero;fill:rgb(61.568627%,63.137255%,78.431373%);fill-opacity:1;" d="M 3.917969 10.757812 C 3.847656 10.769531 3.816406 10.734375 3.796875 10.667969 C 3.71875 10.363281 3.632812 10.0625 3.546875 9.761719 C 3.535156 9.714844 3.5 9.667969 3.476562 9.621094 C 3.765625 9.320312 4.050781 9.015625 4.34375 8.714844 C 4.5 8.558594 4.664062 8.410156 4.828125 8.261719 C 4.859375 8.230469 4.894531 8.207031 4.929688 8.183594 C 4.953125 8.25 4.984375 8.316406 5 8.386719 C 5.054688 8.652344 5.109375 8.917969 5.160156 9.183594 C 5.171875 9.257812 5.207031 9.285156 5.277344 9.277344 C 5.132812 9.425781 4.984375 9.570312 4.84375 9.722656 C 4.535156 10.066406 4.226562 10.414062 3.917969 10.757812 Z M 3.917969 10.757812 "/>
<path style=" stroke:none;fill-rule:nonzero;fill:rgb(58.823529%,60.392157%,76.470588%);fill-opacity:1;" d="M 31.691406 1.988281 C 31.574219 1.640625 31.457031 1.292969 31.339844 0.941406 C 31.332031 0.917969 31.328125 0.890625 31.320312 0.867188 C 31.722656 0.882812 32.121094 0.898438 32.523438 0.917969 C 32.722656 0.929688 32.921875 0.941406 33.117188 0.953125 C 33.121094 0.996094 33.128906 1.035156 33.136719 1.078125 C 33.179688 1.222656 33.230469 1.367188 33.273438 1.515625 C 33.324219 1.710938 33.371094 1.90625 33.417969 2.101562 C 33.195312 2.089844 32.976562 2.070312 32.757812 2.058594 C 32.417969 2.039062 32.078125 2.027344 31.742188 2.011719 C 31.722656 2.007812 31.707031 2 31.691406 1.988281 Z M 31.691406 1.988281 "/>
<path style=" stroke:none;fill-rule:nonzero;fill:rgb(38.431373%,40%,61.176471%);fill-opacity:1;" d="M 40.886719 3.191406 C 40.84375 2.898438 40.800781 2.605469 40.757812 2.3125 C 40.746094 2.222656 40.734375 2.128906 40.722656 2.039062 L 42.476562 2.476562 C 42.480469 2.570312 42.480469 2.667969 42.488281 2.761719 C 42.519531 3.050781 42.554688 3.34375 42.589844 3.632812 C 42.214844 3.535156 41.835938 3.441406 41.460938 3.34375 C 41.269531 3.292969 41.078125 3.242188 40.886719 3.191406 Z M 40.886719 3.191406 "/>
<path style=" stroke:none;fill-rule:nonzero;fill:rgb(55.294118%,56.862745%,73.72549%);fill-opacity:1;" d="M 33.417969 2.105469 C 33.371094 1.90625 33.324219 1.710938 33.273438 1.515625 C 33.234375 1.371094 33.179688 1.226562 33.136719 1.078125 C 33.128906 1.039062 33.121094 0.996094 33.121094 0.957031 C 33.546875 0.988281 33.976562 1.019531 34.40625 1.054688 C 34.554688 1.066406 34.703125 1.085938 34.847656 1.101562 C 34.890625 1.285156 34.933594 1.464844 34.976562 1.644531 C 35.015625 1.828125 35.058594 2.015625 35.101562 2.199219 C 35.09375 2.199219 35.085938 2.199219 35.078125 2.199219 L 35.007812 2.246094 C 34.824219 2.222656 34.640625 2.195312 34.457031 2.179688 C 34.109375 2.148438 33.765625 2.128906 33.417969 2.105469 Z M 33.417969 2.105469 "/>
<path style=" stroke:none;fill-rule:nonzero;fill:rgb(34.901961%,36.470588%,58.431373%);fill-opacity:1;" d="M 42.589844 3.632812 C 42.558594 3.34375 42.523438 3.050781 42.488281 2.761719 C 42.480469 2.664062 42.480469 2.570312 42.476562 2.476562 L 44.066406 2.9375 C 44.089844 3.203125 44.117188 3.46875 44.140625 3.734375 C 44.152344 3.855469 44.167969 3.976562 44.179688 4.097656 C 44.027344 4.054688 43.871094 4.011719 43.71875 3.96875 C 43.34375 3.855469 42.964844 3.746094 42.589844 3.632812 Z M 42.589844 3.632812 "/>
<path style=" stroke:none;fill-rule:nonzero;fill:rgb(31.372549%,32.941176%,55.686275%);fill-opacity:1;" d="M 44.179688 4.097656 C 44.167969 3.976562 44.152344 3.855469 44.140625 3.734375 C 44.117188 3.46875 44.089844 3.203125 44.066406 2.9375 C 44.464844 3.066406 44.863281 3.191406 45.261719 3.324219 C 45.351562 3.351562 45.433594 3.386719 45.519531 3.421875 C 45.511719 3.464844 45.492188 3.511719 45.496094 3.554688 C 45.523438 3.898438 45.554688 4.238281 45.585938 4.582031 C 45.332031 4.496094 45.074219 4.410156 44.816406 4.320312 C 44.605469 4.246094 44.390625 4.171875 44.179688 4.097656 Z M 44.179688 4.097656 "/>
<path style=" stroke:none;fill-rule:nonzero;fill:rgb(65.490196%,67.058824%,81.176471%);fill-opacity:1;" d="M 5.28125 9.277344 C 5.210938 9.285156 5.175781 9.257812 5.160156 9.1875 C 5.109375 8.917969 5.058594 8.652344 5 8.386719 C 4.984375 8.316406 4.953125 8.25 4.929688 8.183594 C 5.183594 7.972656 5.433594 7.753906 5.6875 7.546875 C 5.828125 7.429688 5.980469 7.328125 6.128906 7.214844 C 6.152344 7.273438 6.1875 7.328125 6.199219 7.390625 C 6.242188 7.667969 6.273438 7.949219 6.316406 8.230469 C 6.320312 8.273438 6.347656 8.3125 6.363281 8.355469 C 6.175781 8.511719 5.988281 8.671875 5.804688 8.832031 C 5.628906 8.980469 5.453125 9.128906 5.28125 9.277344 Z M 5.28125 9.277344 "/>
<path style=" stroke:none;fill-rule:nonzero;fill:rgb(98.823529%,98.823529%,99.215686%);fill-opacity:1;" d="M 23.804688 17.546875 C 23.632812 17.789062 23.476562 18.03125 23.296875 18.257812 C 22.429688 19.347656 21.378906 20.183594 20.042969 20.625 C 19.457031 20.820312 18.847656 20.925781 18.230469 20.988281 C 17.027344 21.105469 15.824219 21.039062 14.617188 21.054688 C 14.566406 21.054688 14.519531 21.054688 14.460938 21.054688 C 14.394531 21.386719 14.332031 21.707031 14.269531 22.03125 C 14.105469 22.878906 13.941406 23.722656 13.777344 24.570312 C 13.714844 24.902344 13.460938 25.097656 13.082031 25.097656 C 12.167969 25.097656 11.253906 25.097656 10.339844 25.097656 C 10.160156 25.097656 9.976562 25.101562 9.796875 25.082031 C 9.628906 25.066406 9.472656 24.980469 9.367188 24.84375 C 9.265625 24.703125 9.226562 24.53125 9.257812 24.359375 C 9.484375 23.175781 9.710938 21.996094 9.941406 20.8125 C 10.222656 19.359375 10.503906 17.90625 10.785156 16.453125 C 11.035156 15.160156 11.285156 13.867188 11.539062 12.578125 C 11.757812 11.445312 11.976562 10.316406 12.191406 9.1875 C 12.257812 8.859375 12.496094 8.660156 12.824219 8.660156 C 15.027344 8.660156 17.226562 8.652344 19.425781 8.664062 C 20.347656 8.671875 21.253906 8.816406 22.109375 9.1875 C 23.527344 9.804688 24.425781 10.863281 24.753906 12.390625 C 24.757812 12.410156 24.761719 12.425781 24.769531 12.445312 C 24.769531 12.457031 24.777344 12.464844 24.789062 12.496094 C 24.828125 12.296875 24.863281 12.117188 24.898438 11.933594 C 24.933594 11.75 24.96875 11.566406 25.007812 11.378906 C 25.25 10.128906 25.492188 8.878906 25.734375 7.628906 C 25.890625 6.816406 26.046875 6.003906 26.203125 5.191406 C 26.273438 4.820312 26.5 4.625 26.871094 4.625 C 27.929688 4.625 28.984375 4.632812 30.042969 4.621094 C 30.539062 4.613281 30.777344 5.054688 30.703125 5.414062 C 30.492188 6.421875 30.304688 7.4375 30.109375 8.449219 C 30.097656 8.511719 30.085938 8.578125 30.074219 8.65625 L 30.214844 8.65625 C 30.984375 8.65625 31.753906 8.648438 32.519531 8.664062 C 33.433594 8.679688 34.335938 8.761719 35.203125 9.074219 C 35.859375 9.304688 36.429688 9.660156 36.832031 10.246094 C 37.167969 10.726562 37.320312 11.269531 37.382812 11.847656 C 37.425781 11.613281 37.476562 11.378906 37.519531 11.140625 C 37.648438 10.488281 37.769531 9.832031 37.898438 9.179688 C 37.964844 8.859375 38.207031 8.65625 38.527344 8.65625 C 40.726562 8.65625 42.929688 8.648438 45.128906 8.664062 C 46.164062 8.671875 47.171875 8.847656 48.105469 9.324219 C 49.453125 10.007812 50.253906 11.105469 50.496094 12.601562 C 50.675781 13.699219 50.546875 14.777344 50.238281 15.832031 C 49.691406 17.699219 48.554688 19.109375 46.90625 20.105469 C 46.210938 20.527344 45.445312 20.761719 44.648438 20.894531 C 43.90625 21.015625 43.160156 21.058594 42.410156 21.054688 C 41.695312 21.054688 40.980469 21.054688 40.269531 21.054688 C 40.1875 21.054688 40.160156 21.074219 40.140625 21.15625 C 39.925781 22.289062 39.707031 23.417969 39.488281 24.546875 C 39.417969 24.902344 39.191406 25.09375 38.835938 25.09375 C 37.765625 25.097656 36.691406 25.101562 35.621094 25.09375 C 35.136719 25.089844 34.886719 24.753906 34.980469 24.269531 C 35.1875 23.199219 35.394531 22.132812 35.601562 21.0625 C 35.605469 21.042969 35.605469 21.023438 35.605469 21.003906 C 35.441406 21.019531 35.277344 21.054688 35.117188 21.054688 C 34.070312 21.058594 33.019531 21.058594 31.972656 21.054688 C 31.617188 21.054688 31.335938 20.796875 31.335938 20.445312 C 31.335938 20.265625 31.386719 20.082031 31.421875 19.902344 C 31.742188 18.242188 32.0625 16.585938 32.382812 14.925781 C 32.480469 14.425781 32.582031 13.929688 32.667969 13.429688 C 32.699219 13.226562 32.699219 13.015625 32.703125 12.808594 C 32.703125 12.640625 32.628906 12.511719 32.453125 12.484375 C 32.183594 12.4375 31.910156 12.371094 31.636719 12.363281 C 30.90625 12.347656 30.179688 12.359375 29.449219 12.355469 C 29.378906 12.355469 29.351562 12.375 29.335938 12.449219 C 29 14.195312 28.660156 15.945312 28.324219 17.695312 C 28.136719 18.644531 27.953125 19.597656 27.769531 20.550781 C 27.710938 20.855469 27.457031 21.054688 27.140625 21.054688 C 26.070312 21.054688 24.996094 21.054688 23.925781 21.054688 C 23.476562 21.054688 23.199219 20.703125 23.289062 20.257812 C 23.460938 19.371094 23.632812 18.480469 23.804688 17.59375 C 23.804688 17.578125 23.804688 17.5625 23.804688 17.546875 Z M 13.945312 20.429688 L 14.070312 20.429688 C 15.246094 20.421875 16.421875 20.425781 17.59375 20.40625 C 18.167969 20.394531 18.734375 20.3125 19.292969 20.1875 C 20.421875 19.933594 21.378906 19.375 22.191406 18.558594 C 23.765625 16.988281 24.402344 15.070312 24.191406 12.882812 C 24.042969 11.335938 23.171875 10.289062 21.742188 9.710938 C 20.964844 9.398438 20.148438 9.292969 19.320312 9.289062 C 17.164062 9.277344 15.007812 9.28125 12.855469 9.28125 C 12.839844 9.285156 12.824219 9.285156 12.804688 9.289062 C 11.828125 14.347656 10.851562 19.402344 9.871094 24.460938 L 13.164062 24.460938 C 13.421875 23.121094 13.683594 21.78125 13.945312 20.429688 Z M 39.648438 20.429688 L 39.777344 20.429688 C 40.648438 20.429688 41.519531 20.445312 42.390625 20.425781 C 43.015625 20.414062 43.640625 20.378906 44.261719 20.3125 C 45.574219 20.171875 46.726562 19.65625 47.699219 18.75 C 49.425781 17.136719 50.132812 15.132812 49.886719 12.808594 C 49.730469 11.304688 48.855469 10.285156 47.464844 9.71875 C 46.695312 9.40625 45.882812 9.292969 45.054688 9.289062 C 42.890625 9.28125 40.722656 9.285156 38.558594 9.28125 C 38.542969 9.285156 38.527344 9.289062 38.511719 9.292969 C 37.535156 14.347656 36.554688 19.402344 35.578125 24.457031 L 38.871094 24.457031 C 39.128906 23.113281 39.390625 21.777344 39.648438 20.429688 Z M 35.273438 20.425781 C 35.410156 19.730469 35.542969 19.042969 35.675781 18.355469 C 35.964844 16.863281 36.253906 15.367188 36.542969 13.875 C 36.652344 13.3125 36.769531 12.75 36.757812 12.171875 C 36.75 11.695312 36.671875 11.238281 36.449219 10.8125 C 36.125 10.203125 35.585938 9.867188 34.960938 9.652344 C 34.164062 9.375 33.335938 9.300781 32.5 9.289062 C 31.484375 9.277344 30.464844 9.285156 29.445312 9.28125 L 29.316406 9.28125 C 29.578125 7.933594 29.835938 6.597656 30.09375 5.253906 L 26.828125 5.253906 C 25.847656 10.3125 24.871094 15.367188 23.890625 20.421875 L 27.160156 20.421875 C 27.71875 17.523438 28.28125 14.628906 28.839844 11.738281 C 28.863281 11.734375 28.875 11.730469 28.890625 11.730469 C 29.828125 11.730469 30.765625 11.722656 31.703125 11.742188 C 32.007812 11.746094 32.3125 11.804688 32.609375 11.875 C 33.011719 11.976562 33.269531 12.238281 33.308594 12.664062 C 33.328125 12.882812 33.339844 13.105469 33.308594 13.320312 C 33.246094 13.761719 33.15625 14.199219 33.074219 14.636719 C 32.738281 16.378906 32.402344 18.113281 32.066406 19.851562 C 32.027344 20.042969 31.992188 20.234375 31.957031 20.425781 Z M 35.273438 20.425781 "/>
<path style=" stroke:none;fill-rule:nonzero;fill:rgb(40%,41.568627%,62.352941%);fill-opacity:1;" d="M 22.703125 29.59375 L 22.65625 29.570312 Z M 22.703125 29.59375 "/>
<path style=" stroke:none;fill-rule:nonzero;fill:rgb(0%,0%,0%);fill-opacity:1;" d="M 13.945312 20.429688 C 13.683594 21.78125 13.421875 23.121094 13.164062 24.460938 L 9.871094 24.460938 C 10.851562 19.398438 11.828125 14.34375 12.808594 9.289062 C 12.824219 9.285156 12.839844 9.285156 12.855469 9.28125 C 15.011719 9.28125 17.164062 9.28125 19.320312 9.289062 C 20.148438 9.292969 20.964844 9.398438 21.742188 9.710938 C 23.171875 10.289062 24.046875 11.335938 24.195312 12.882812 C 24.402344 15.070312 23.765625 16.988281 22.195312 18.558594 C 21.378906 19.375 20.421875 19.933594 19.292969 20.1875 C 18.734375 20.3125 18.167969 20.394531 17.59375 20.40625 C 16.417969 20.425781 15.246094 20.425781 14.070312 20.433594 Z M 14.40625 18.027344 C 14.449219 18.03125 14.472656 18.035156 14.5 18.035156 L 16.367188 18.035156 C 16.945312 18.035156 17.515625 18 18.078125 17.863281 C 18.761719 17.691406 19.371094 17.398438 19.824219 16.832031 C 20.183594 16.378906 20.40625 15.863281 20.558594 15.3125 C 20.621094 15.089844 20.675781 14.859375 20.714844 14.628906 C 20.753906 14.402344 20.769531 14.171875 20.785156 13.941406 C 20.796875 13.800781 20.785156 13.664062 20.789062 13.523438 C 20.792969 13.261719 20.730469 13.007812 20.632812 12.765625 C 20.4375 12.289062 20.042969 12.042969 19.578125 11.894531 C 19.085938 11.738281 18.570312 11.691406 18.054688 11.683594 C 17.269531 11.675781 16.488281 11.683594 15.703125 11.679688 C 15.679688 11.679688 15.65625 11.683594 15.632812 11.6875 C 15.222656 13.800781 14.816406 15.90625 14.40625 18.027344 Z M 14.40625 18.027344 "/>
<path style=" stroke:none;fill-rule:nonzero;fill:rgb(0%,0%,0%);fill-opacity:1;" d="M 39.648438 20.429688 C 39.390625 21.777344 39.128906 23.113281 38.871094 24.457031 L 35.578125 24.457031 C 36.554688 19.398438 37.535156 14.34375 38.511719 9.292969 C 38.527344 9.289062 38.542969 9.285156 38.558594 9.28125 C 40.722656 9.28125 42.890625 9.28125 45.054688 9.289062 C 45.882812 9.292969 46.695312 9.40625 47.464844 9.71875 C 48.859375 10.285156 49.730469 11.304688 49.890625 12.808594 C 50.132812 15.132812 49.425781 17.136719 47.699219 18.75 C 46.726562 19.65625 45.574219 20.171875 44.265625 20.3125 C 43.644531 20.378906 43.015625 20.414062 42.390625 20.425781 C 41.519531 20.445312 40.648438 20.429688 39.777344 20.429688 Z M 40.109375 18.035156 L 40.246094 18.035156 C 40.835938 18.035156 41.429688 18.039062 42.019531 18.03125 C 42.347656 18.03125 42.671875 18.03125 42.996094 17.996094 C 43.492188 17.941406 43.980469 17.839844 44.449219 17.640625 C 44.996094 17.402344 45.425781 17.035156 45.742188 16.535156 C 45.988281 16.152344 46.144531 15.734375 46.265625 15.300781 C 46.402344 14.832031 46.480469 14.351562 46.503906 13.863281 C 46.507812 13.59375 46.488281 13.328125 46.433594 13.0625 C 46.386719 12.777344 46.246094 12.515625 46.039062 12.316406 C 45.835938 12.125 45.59375 12.003906 45.332031 11.914062 C 44.878906 11.757812 44.410156 11.703125 43.9375 11.691406 C 43.097656 11.671875 42.257812 11.683594 41.417969 11.683594 C 41.359375 11.683594 41.332031 11.695312 41.324219 11.761719 C 41.289062 11.980469 41.238281 12.199219 41.199219 12.417969 C 41.109375 12.871094 41.019531 13.328125 40.933594 13.78125 C 40.867188 14.121094 40.800781 14.460938 40.734375 14.800781 C 40.648438 15.257812 40.558594 15.710938 40.472656 16.167969 C 40.398438 16.546875 40.320312 16.925781 40.25 17.308594 C 40.203125 17.542969 40.15625 17.78125 40.109375 18.035156 Z M 40.109375 18.035156 "/>
<path style=" stroke:none;fill-rule:nonzero;fill:rgb(0%,0%,0%);fill-opacity:1;" d="M 35.273438 20.425781 L 31.957031 20.425781 C 31.992188 20.234375 32.027344 20.042969 32.066406 19.851562 C 32.402344 18.113281 32.738281 16.375 33.074219 14.636719 C 33.15625 14.199219 33.246094 13.761719 33.308594 13.320312 C 33.339844 13.105469 33.328125 12.882812 33.308594 12.664062 C 33.269531 12.238281 33.011719 11.976562 32.609375 11.875 C 32.3125 11.804688 32.007812 11.746094 31.703125 11.742188 C 30.765625 11.722656 29.828125 11.734375 28.890625 11.730469 C 28.875 11.730469 28.863281 11.734375 28.839844 11.738281 C 28.28125 14.632812 27.71875 17.527344 27.160156 20.421875 L 23.890625 20.421875 C 24.871094 15.367188 25.847656 10.308594 26.828125 5.253906 L 30.09375 5.253906 C 29.832031 6.597656 29.574219 7.933594 29.316406 9.28125 L 29.445312 9.28125 C 30.464844 9.285156 31.484375 9.277344 32.5 9.289062 C 33.335938 9.300781 34.164062 9.375 34.960938 9.652344 C 35.585938 9.867188 36.125 10.203125 36.449219 10.8125 C 36.671875 11.238281 36.75 11.695312 36.757812 12.171875 C 36.769531 12.75 36.652344 13.3125 36.542969 13.875 C 36.253906 15.367188 35.964844 16.863281 35.675781 18.355469 C 35.542969 19.042969 35.410156 19.730469 35.273438 20.425781 Z M 35.273438 20.425781 "/>
<path style=" stroke:none;fill-rule:nonzero;fill:rgb(99.215686%,99.215686%,99.607843%);fill-opacity:1;" d="M 14.40625 18.027344 C 14.816406 15.90625 15.222656 13.800781 15.632812 11.6875 C 15.660156 11.6875 15.679688 11.683594 15.703125 11.683594 C 16.488281 11.683594 17.269531 11.679688 18.054688 11.6875 C 18.570312 11.691406 19.085938 11.738281 19.578125 11.894531 C 20.042969 12.042969 20.4375 12.292969 20.632812 12.769531 C 20.734375 13.011719 20.792969 13.261719 20.789062 13.527344 C 20.785156 13.664062 20.796875 13.804688 20.785156 13.941406 C 20.769531 14.171875 20.753906 14.402344 20.714844 14.628906 C 20.675781 14.859375 20.621094 15.089844 20.558594 15.316406 C 20.40625 15.863281 20.183594 16.382812 19.824219 16.832031 C 19.371094 17.398438 18.761719 17.695312 18.078125 17.863281 C 17.515625 18.003906 16.945312 18.035156 16.367188 18.035156 L 14.5 18.035156 C 14.472656 18.035156 14.449219 18.03125 14.40625 18.027344 Z M 15.160156 17.398438 C 15.210938 17.402344 15.242188 17.40625 15.273438 17.40625 C 15.71875 17.40625 16.164062 17.40625 16.609375 17.40625 C 17.074219 17.40625 17.539062 17.351562 17.992188 17.242188 C 18.613281 17.085938 19.15625 16.800781 19.496094 16.230469 C 20.019531 15.355469 20.230469 14.394531 20.160156 13.375 C 20.132812 12.964844 19.914062 12.675781 19.515625 12.53125 C 19.0625 12.367188 18.589844 12.320312 18.113281 12.3125 C 17.558594 12.304688 17 12.308594 16.441406 12.308594 C 16.15625 12.308594 16.152344 12.308594 16.097656 12.589844 C 15.941406 13.378906 15.785156 14.167969 15.628906 14.953125 C 15.515625 15.546875 15.40625 16.140625 15.292969 16.738281 C 15.25 16.953125 15.207031 17.167969 15.160156 17.398438 Z M 15.160156 17.398438 "/>
<path style=" stroke:none;fill-rule:nonzero;fill:rgb(99.215686%,99.215686%,99.607843%);fill-opacity:1;" d="M 40.109375 18.035156 C 40.15625 17.78125 40.203125 17.542969 40.25 17.308594 C 40.320312 16.925781 40.398438 16.546875 40.472656 16.164062 C 40.558594 15.710938 40.648438 15.253906 40.734375 14.800781 C 40.800781 14.460938 40.867188 14.121094 40.933594 13.78125 C 41.019531 13.324219 41.109375 12.871094 41.199219 12.417969 C 41.238281 12.199219 41.289062 11.980469 41.320312 11.761719 C 41.332031 11.691406 41.359375 11.679688 41.417969 11.679688 C 42.257812 11.683594 43.097656 11.671875 43.9375 11.691406 C 44.410156 11.699219 44.878906 11.753906 45.332031 11.914062 C 45.59375 12.003906 45.839844 12.125 46.039062 12.316406 C 46.246094 12.515625 46.386719 12.777344 46.433594 13.0625 C 46.488281 13.324219 46.507812 13.59375 46.503906 13.863281 C 46.480469 14.351562 46.402344 14.832031 46.265625 15.296875 C 46.144531 15.734375 45.988281 16.152344 45.742188 16.535156 C 45.425781 17.03125 44.996094 17.402344 44.449219 17.636719 C 43.980469 17.839844 43.492188 17.941406 42.996094 17.996094 C 42.671875 18.03125 42.34375 18.027344 42.019531 18.03125 C 41.429688 18.039062 40.835938 18.035156 40.246094 18.035156 Z M 40.867188 17.398438 C 40.902344 17.402344 40.933594 17.40625 40.964844 17.40625 C 41.386719 17.40625 41.808594 17.402344 42.230469 17.40625 C 42.722656 17.410156 43.210938 17.355469 43.6875 17.242188 C 44.328125 17.085938 44.871094 16.785156 45.21875 16.203125 C 45.714844 15.371094 45.914062 14.453125 45.878906 13.492188 C 45.855469 12.898438 45.621094 12.640625 45.050781 12.472656 C 44.640625 12.355469 44.222656 12.3125 43.796875 12.3125 C 43.1875 12.304688 42.578125 12.308594 41.964844 12.308594 C 41.933594 12.308594 41.898438 12.3125 41.855469 12.3125 C 41.527344 14.003906 41.199219 15.695312 40.867188 17.398438 Z M 40.867188 17.398438 "/>
<path style=" stroke:none;fill-rule:nonzero;fill:rgb(46.666667%,48.235294%,69.803922%);fill-opacity:1;" d="M 15.160156 17.398438 C 15.207031 17.167969 15.25 16.953125 15.289062 16.734375 C 15.402344 16.140625 15.515625 15.546875 15.628906 14.953125 C 15.785156 14.164062 15.9375 13.375 16.097656 12.585938 C 16.152344 12.304688 16.15625 12.304688 16.441406 12.304688 C 17 12.304688 17.554688 12.300781 18.113281 12.308594 C 18.589844 12.316406 19.058594 12.367188 19.515625 12.53125 C 19.914062 12.675781 20.132812 12.960938 20.160156 13.375 C 20.230469 14.394531 20.019531 15.351562 19.496094 16.230469 C 19.15625 16.796875 18.613281 17.085938 17.992188 17.238281 C 17.539062 17.351562 17.074219 17.40625 16.609375 17.402344 C 16.160156 17.402344 15.714844 17.402344 15.269531 17.402344 C 15.242188 17.40625 15.210938 17.402344 15.160156 17.398438 Z M 15.160156 17.398438 "/>
<path style=" stroke:none;fill-rule:nonzero;fill:rgb(46.666667%,48.235294%,69.803922%);fill-opacity:1;" d="M 40.867188 17.398438 C 41.199219 15.695312 41.527344 14.003906 41.855469 12.3125 C 41.898438 12.308594 41.933594 12.308594 41.964844 12.308594 C 42.578125 12.308594 43.1875 12.304688 43.796875 12.308594 C 44.222656 12.3125 44.640625 12.351562 45.050781 12.472656 C 45.621094 12.640625 45.855469 12.898438 45.878906 13.492188 C 45.914062 14.453125 45.714844 15.367188 45.21875 16.203125 C 44.871094 16.785156 44.328125 17.085938 43.6875 17.242188 C 43.210938 17.355469 42.722656 17.410156 42.230469 17.402344 C 41.808594 17.402344 41.386719 17.402344 40.964844 17.402344 C 40.933594 17.40625 40.902344 17.402344 40.867188 17.398438 Z M 40.867188 17.398438 "/>
</g>
</svg>
